REM DIRINDEX 1\4,1\2\5,1\2\6,1\3\7,1\3\8
REM DIRNAME cjc124,folder01,folder02,folder03,folder04,folder05,folder06,folder07
TITLE ""
FILE "084_Day42_Check3_Sentences.mp3" MP3
  TRACK 01 AUDIO
    TITLE "0:"
    INDEX 01 00:00:00
  TRACK 02 AUDIO
    TITLE "4:cjc124_2742"
    INDEX 01 00:00:25
  TRACK 03 AUDIO
    TITLE "0:"
    INDEX 01 00:02:00
  TRACK 04 AUDIO
    TITLE "7:cjc124_2743"
    INDEX 01 00:02:47
  TRACK 05 AUDIO
    TITLE "0:"
    INDEX 01 00:07:29
  TRACK 06 AUDIO
    TITLE "8:cjc124_2744"
    INDEX 01 00:07:43
  TRACK 07 AUDIO
    TITLE "0:"
    INDEX 01 00:11:23
  TRACK 08 AUDIO
    TITLE "7:cjc124_2745"
    INDEX 01 00:11:74
  TRACK 09 AUDIO
    TITLE "0:"
    INDEX 01 00:15:46
  TRACK 10 AUDIO
    TITLE "8:cjc124_2746"
    INDEX 01 00:15:62
  TRACK 11 AUDIO
    TITLE "0:"
    INDEX 01 00:19:09
  TRACK 12 AUDIO
    TITLE "7:cjc124_2747"
    INDEX 01 00:19:44
  TRACK 13 AUDIO
    TITLE "0:"
    INDEX 01 00:22:52
  TRACK 14 AUDIO
    TITLE "8:cjc124_2748"
    INDEX 01 00:22:70
  TRACK 15 AUDIO
    TITLE "0:"
    INDEX 01 00:25:56
  TRACK 16 AUDIO
    TITLE "7:cjc124_2749"
    INDEX 01 00:26:18
  TRACK 17 AUDIO
    TITLE "0:"
    INDEX 01 00:30:12
  TRACK 18 AUDIO
    TITLE "8:cjc124_2750"
    INDEX 01 00:30:38
  TRACK 19 AUDIO
    TITLE "0:"
    INDEX 01 00:33:40
  TRACK 20 AUDIO
    TITLE "7:cjc124_2751"
    INDEX 01 00:34:00
  TRACK 21 AUDIO
    TITLE "0:"
    INDEX 01 00:36:42
  TRACK 22 AUDIO
    TITLE "8:cjc124_2752"
    INDEX 01 00:36:58
  TRACK 23 AUDIO
    TITLE "0:"
    INDEX 01 00:39:37
  TRACK 24 AUDIO
    TITLE "7:cjc124_2753"
    INDEX 01 00:40:01
  TRACK 25 AUDIO
    TITLE "0:"
    INDEX 01 00:43:19
  TRACK 26 AUDIO
    TITLE "8:cjc124_2754"
    INDEX 01 00:43:35
  TRACK 27 AUDIO
    TITLE "0:"
    INDEX 01 00:46:37
  TRACK 28 AUDIO
    TITLE "7:cjc124_2755"
    INDEX 01 00:47:03
  TRACK 29 AUDIO
    TITLE "0:"
    INDEX 01 00:50:37
  TRACK 30 AUDIO
    TITLE "8:cjc124_2756"
    INDEX 01 00:50:52
  TRACK 31 AUDIO
    TITLE "0:"
    INDEX 01 00:53:35
  TRACK 32 AUDIO
    TITLE "7:cjc124_2757"
    INDEX 01 00:53:70
  TRACK 33 AUDIO
    TITLE "0:"
    INDEX 01 00:57:29
  TRACK 34 AUDIO
    TITLE "8:cjc124_2758"
    INDEX 01 00:57:46
  TRACK 35 AUDIO
    TITLE "0:"
    INDEX 01 01:00:43
  TRACK 36 AUDIO
    TITLE "7:cjc124_2759"
    INDEX 01 01:01:11
  TRACK 37 AUDIO
    TITLE "0:"
    INDEX 01 01:04:31
  TRACK 38 AUDIO
    TITLE "8:cjc124_2760"
    INDEX 01 01:04:45
  TRACK 39 AUDIO
    TITLE "0:"
    INDEX 01 01:07:68
  TRACK 40 AUDIO
    TITLE "7:cjc124_2761"
    INDEX 01 01:08:29
  TRACK 41 AUDIO
    TITLE "0:"
    INDEX 01 01:12:23
  TRACK 42 AUDIO
    TITLE "8:cjc124_2762"
    INDEX 01 01:12:36
  TRACK 43 AUDIO
    TITLE "0:"
    INDEX 01 01:15:19
  TRACK 44 AUDIO
    TITLE "7:cjc124_2763"
    INDEX 01 01:15:58
  TRACK 45 AUDIO
    TITLE "0:"
    INDEX 01 01:18:70
  TRACK 46 AUDIO
    TITLE "8:cjc124_2764"
    INDEX 01 01:19:15
  TRACK 47 AUDIO
    TITLE "0:"
    INDEX 01 01:22:41
  TRACK 48 AUDIO
    TITLE "7:cjc124_2765"
    INDEX 01 01:23:01
  TRACK 49 AUDIO
    TITLE "0:"
    INDEX 01 01:26:52
  TRACK 50 AUDIO
    TITLE "8:cjc124_2766"
    INDEX 01 01:26:70
  TRACK 51 AUDIO
    TITLE "0:"
    INDEX 01 01:30:64
  TRACK 52 AUDIO
    TITLE "7:cjc124_2767"
    INDEX 01 01:31:24
  TRACK 53 AUDIO
    TITLE "0:"
    INDEX 01 01:33:19
  TRACK 54 AUDIO
    TITLE "8:cjc124_2768"
    INDEX 01 01:33:36
  TRACK 55 AUDIO
    TITLE "0:"
    INDEX 01 01:35:10
  TRACK 56 AUDIO
    TITLE "7:cjc124_2769"
    INDEX 01 01:35:49
  TRACK 57 AUDIO
    TITLE "0:"
    INDEX 01 01:38:28
  TRACK 58 AUDIO
    TITLE "8:cjc124_2770"
    INDEX 01 01:38:42
  TRACK 59 AUDIO
    TITLE "0:"
    INDEX 01 01:40:52
  TRACK 60 AUDIO
    TITLE "7:cjc124_2771"
    INDEX 01 01:41:12
  TRACK 61 AUDIO
    TITLE "0:"
    INDEX 01 01:44:46
  TRACK 62 AUDIO
    TITLE "8:cjc124_2772"
    INDEX 01 01:44:64
  TRACK 63 AUDIO
    TITLE "0:"
    INDEX 01 01:47:37
  TRACK 64 AUDIO
    TITLE "7:cjc124_2773"
    INDEX 01 01:47:72
  TRACK 65 AUDIO
    TITLE "0:"
    INDEX 01 01:52:40
  TRACK 66 AUDIO
    TITLE "8:cjc124_2774"
    INDEX 01 01:52:55
  TRACK 67 AUDIO
    TITLE "0:"
    INDEX 01 01:55:63
